<svg xmlns="http://www.w3.org/2000/svg" viewBox="0 0 32 32" width="32" height="32"><rect width="32" height="32" fill="#667eea" rx="4"/><g stroke="#ffffff" stroke-width="1" fill="none"><line x1="8" y1="8" x2="24" y2="8"/><line x1="8" y1="12" x2="24" y2="12"/><line x1="8" y1="16" x2="24" y2="16"/><line x1="8" y1="20" x2="24" y2="20"/><line x1="8" y1="24" x2="24" y2="24"/><line x1="8" y1="8" x2="8" y2="24"/><line x1="12" y1="8" x2="12" y2="24"/><line x1="16" y1="8" x2="16" y2="24"/><line x1="20" y1="8" x2="20" y2="24"/><line x1="24" y1="8" x2="24" y2="24"/><line x1="8" y1="8" x2="24" y2="8" stroke-width="2"/><line x1="8" y1="16" x2="24" y2="16" stroke-width="2"/><line x1="8" y1="24" x2="24" y2="24" stroke-width="2"/><line x1="8" y1="8" x2="8" y2="24" stroke-width="2"/><line x1="16" y1="8" x2="16" y2="24" stroke-width="2"/><line x1="24" y1="8" x2="24" y2="24" stroke-width="2"/></g><text x="10" y="11" font-family="Arial, sans-serif" font-size="3" font-weight="bold" fill="#ffffff">5</text><text x="14" y="11" font-family="Arial, sans-serif" font-size="3" font-weight="bold" fill="#ffffff">3</text><text x="18" y="11" font-family="Arial, sans-serif" font-size="3" font-weight="bold" fill="#ffffff">4</text><text x="22" y="11" font-family="Arial, sans-serif" font-size="3" font-weight="bold" fill="#ffffff">6</text><text x="10" y="15" font-family="Arial, sans-serif" font-size="3" font-weight="bold" fill="#ffffff">6</text><text x="14" y="15" font-family="Arial, sans-serif" font-size="3" font-weight="bold" fill="#ffffff">7</text><text x="18" y="15" font-family="Arial, sans-serif" font-size="3" font-weight="bold" fill="#ffffff">2</text><text x="22" y="15" font-family="Arial, sans-serif" font-size="3" font-weight="bold" fill="#ffffff">1</text><text x="10" y="19" font-family="Arial, sans-serif" font-size="3" font-weight="bold" fill="#ffffff">1</text><text x="14" y="19" font-family="Arial, sans-serif" font-size="3" font-weight="bold" fill="#ffffff">9</text><text x="18" y="19" font-family="Arial, sans-serif" font-size="3" font-weight="bold" fill="#ffffff">8</text><text x="22" y="19" font-family="Arial, sans-serif" font-size="3" font-weight="bold" fill="#ffffff">3</text><text x="10" y="23" font-family="Arial, sans-serif" font-size="3" font-weight="bold" fill="#ffffff">8</text><text x="14" y="23" font-family="Arial, sans-serif" font-size="3" font-weight="bold" fill="#ffffff">5</text><text x="18" y="23" font-family="Arial, sans-serif" font-size="3" font-weight="bold" fill="#ffffff">9</text><text x="22" y="23" font-family="Arial, sans-serif" font-size="3" font-weight="bold" fill="#ffffff">7</text></svg>
